<svg version="1.1" id="Layer_1" xmlns="http://www.w3.org/2000/svg" xmlns:xlink="http://www.w3.org/1999/xlink" x="0px" y="0px"
	 width="100%" viewBox="0 0 672 520" enable-background="new 0 0 672 520" xml:space="preserve">
<path fill="#FEFEFE" opacity="1.000000" stroke="none" 
	d="
M673.000000,495.000000 
	C673.000000,503.660675 673.000000,512.321350 673.000000,521.000000 
	C472.311890,521.000000 271.623810,521.000000 70.676300,520.665283 
	C71.570457,520.176514 72.723869,520.021362 73.877602,519.868713 
	C80.376221,519.008667 81.362411,516.876160 78.170708,510.976379 
	C77.441109,509.627716 77.184380,508.023224 76.604095,506.204529 
	C79.443489,506.064850 81.668724,506.263275 83.743454,505.794952 
	C89.682838,504.454193 95.634598,503.066376 101.407768,501.168549 
	C102.720886,500.736908 104.097923,498.183289 104.122986,496.585632 
	C104.197113,491.860229 98.795944,487.313049 94.113449,486.998962 
	C86.716820,486.502899 80.070045,483.435272 77.407066,474.973511 
	C74.414124,465.463196 77.249092,455.601227 73.993256,446.504913 
	C70.391060,436.440887 73.699913,427.614410 77.719185,418.797791 
	C83.543449,406.021729 84.770866,392.586853 84.127411,378.775696 
	C83.445374,364.136444 82.989647,349.486328 82.514114,334.838409 
	C82.474228,333.609711 82.664764,332.051117 83.391380,331.186005 
	C84.978020,329.296936 86.978859,327.755768 88.834785,326.050140 
	C89.011810,327.308563 89.227051,328.838745 89.619431,331.628052 
	C91.137138,329.671600 92.695984,328.588806 92.702957,327.496124 
	C92.736984,322.165863 92.356529,316.832947 92.115486,311.336456 
	C98.747963,309.097473 98.693008,309.107208 97.360039,301.586884 
	C96.776314,298.293579 96.468918,294.951294 95.996262,291.326111 
	C102.623894,293.693909 106.458603,301.904633 105.283981,307.957306 
	C104.291328,313.072296 103.459625,318.616791 104.394096,323.628601 
	C106.673897,335.855713 113.044891,346.262878 121.553452,355.255371 
	C123.435951,357.244965 125.955940,358.868652 128.485245,359.956940 
	C133.035721,361.914917 136.301727,360.378387 136.968658,355.545044 
	C137.810852,349.441711 137.464767,343.195435 141.679306,337.953461 
	C142.454834,336.988831 142.002350,335.045197 142.136398,333.555176 
	C143.324509,320.349365 136.403961,309.441315 132.270706,297.995789 
	C140.967133,292.092468 150.192245,286.676086 158.457428,280.060394 
	C182.839478,260.544312 204.587479,238.213364 225.952728,215.498566 
	C228.310272,212.992081 231.672745,211.448730 234.477448,209.336914 
	C235.760284,208.371002 237.081207,207.274841 237.924927,205.945786 
	C239.483047,203.491287 240.386337,200.583511 242.119308,198.284332 
	C248.292419,190.094284 254.818893,182.170242 260.978058,173.970093 
	C265.345795,168.154999 270.274384,162.489441 273.274750,155.983368 
	C277.669586,146.453461 284.740143,139.966049 292.890198,134.079254 
	C293.957153,133.308578 294.148865,131.326141 294.970398,129.635300 
	C298.889038,126.845169 302.638855,124.401474 306.259705,121.779694 
	C309.110382,119.715614 311.244141,119.707619 313.132782,123.061241 
	C315.252655,126.825470 317.707886,130.399231 319.955353,134.093491 
	C329.537537,149.844055 339.202240,165.546539 348.547943,181.436493 
	C349.909393,183.751328 350.438049,187.081482 350.085571,189.776169 
	C349.180847,196.693085 347.243744,203.473984 346.317932,210.389374 
	C345.311768,217.904892 343.962494,225.596344 344.588776,233.057816 
	C345.588623,244.969925 350.922211,255.275574 359.575256,263.846649 
	C361.474213,265.727600 363.166565,268.998383 363.042847,271.535950 
	C362.504486,282.578400 364.545593,292.926025 368.555328,303.209930 
	C377.276794,325.578186 384.870575,348.267853 385.449219,372.684052 
	C385.562225,377.453339 386.791809,382.228790 387.799438,386.938690 
	C392.474731,408.791534 393.005005,430.764679 389.889282,452.850616 
	C389.686249,454.289703 389.177307,455.859711 388.321930,457.003235 
	C384.073547,462.682739 379.754791,468.316132 375.266510,473.806976 
	C373.073395,476.489960 370.081726,478.564514 368.114044,481.377838 
	C364.486176,486.564880 366.129181,490.273285 372.346039,491.805054 
	C373.624634,492.120056 375.008667,492.297638 376.310913,492.177734 
	C383.435608,491.521606 390.589508,490.995514 397.639069,489.846497 
	C399.328979,489.571045 401.869568,487.138947 401.924530,485.622742 
	C402.075897,481.447906 401.254700,477.209869 400.560455,473.039764 
	C399.793549,468.433319 399.191589,463.729828 403.756989,460.865631 
	C412.579895,455.330231 413.043152,447.344666 411.904846,438.143250 
	C409.862762,421.636017 407.515228,405.076630 407.023254,388.487793 
	C406.209351,361.044159 406.753967,333.559845 406.752686,306.092682 
	C406.752197,295.539581 410.618866,290.610809 420.763611,288.077087 
	C421.570526,287.875610 422.384338,287.701630 423.192871,287.506409 
	C430.057556,285.848602 433.897583,287.652924 436.385956,294.470154 
	C438.603607,300.545715 440.480896,306.772278 442.082916,313.040924 
	C447.200745,333.066498 451.562225,353.192627 449.591736,374.129089 
	C449.374756,376.434570 450.146729,379.286346 451.456573,381.204041 
	C457.185181,389.591064 459.530182,398.966431 460.628784,408.849030 
	C461.927124,420.528320 464.724426,432.104584 460.010651,443.830963 
	C458.888947,446.621460 460.707581,450.529907 460.923676,453.939972 
	C461.147003,457.464386 461.728973,461.153687 460.990875,464.515472 
	C458.964966,473.742371 456.328766,482.835236 453.749298,492.272278 
	C454.286530,493.483765 454.995697,495.189178 455.732666,495.201294 
	C462.152405,495.306793 468.577118,495.108948 475.382263,495.014771 
	C477.851349,493.848328 481.345917,493.034821 481.766235,491.420746 
	C483.115997,486.237823 484.521210,480.808533 480.997101,475.563232 
	C477.186676,469.891907 476.493042,463.844757 478.679108,457.044159 
	C480.092041,452.648682 480.661835,447.487762 479.869293,442.975494 
	C477.919464,431.874359 474.586548,421.019592 472.538818,409.931091 
	C471.030151,401.761841 471.067444,393.538452 473.932129,385.326080 
	C475.329865,381.319061 475.609314,376.336456 474.644592,372.204102 
	C472.077667,361.208679 471.775726,350.222961 472.088226,339.028625 
	C472.588989,321.089722 476.383026,303.071991 471.045624,285.530273 
	C477.873932,286.241364 484.441559,286.925323 491.111176,288.053589 
	C491.278442,290.004700 491.343719,291.511505 491.331116,293.401184 
	C492.881256,298.210266 495.497375,302.535919 495.960114,307.080780 
	C497.643829,323.618439 498.723602,340.222107 499.772095,356.817230 
	C500.090637,361.858948 502.472260,364.622101 507.209076,365.202698 
	C513.304932,365.949829 519.494141,367.038300 525.562744,366.666687 
	C536.974365,365.967926 548.328369,364.328125 559.744202,363.541443 
	C560.107727,370.488708 560.700623,376.974518 560.693237,383.459625 
	C560.683533,392.063232 559.957581,400.667542 559.999695,409.269318 
	C560.039734,417.443207 560.050537,425.525757 556.991516,433.292603 
	C555.231201,437.761963 553.431519,442.234741 552.037842,446.823914 
	C550.831116,450.797394 550.172241,454.937164 549.065186,459.933075 
	C555.523621,459.933075 560.680542,460.234375 565.789490,459.867432 
	C575.062561,459.201385 578.322754,453.943298 575.087524,445.364807 
	C572.594727,438.754669 573.094543,432.801880 576.773376,426.415802 
	C579.096924,422.382385 580.147339,416.958954 579.934204,412.241913 
	C579.251343,397.132538 577.687866,382.063782 576.532043,366.974152 
	C576.345764,364.542938 576.505859,362.085175 576.505859,359.639679 
	C576.785339,359.587982 577.064758,359.536316 577.344238,359.484619 
	C578.654541,363.256134 579.964905,367.027679 581.732544,372.115570 
	C581.732544,367.493011 581.732544,364.340851 581.732544,361.188690 
	C582.243774,361.131744 582.755066,361.074799 583.266296,361.017853 
	C584.050964,366.751434 584.835571,372.485046 585.620239,378.218628 
	C585.894958,378.221741 586.169739,378.224854 586.444458,378.227997 
	C586.444458,372.120789 586.444458,366.013611 586.444458,359.906433 
	C586.973083,359.839203 587.501709,359.771973 588.030334,359.704773 
	C589.436829,365.306915 590.843323,370.909058 592.249878,376.511230 
	C592.468750,376.484406 592.687683,376.457611 592.906616,376.430817 
	C592.906616,371.806671 592.906616,367.182556 592.906616,361.207672 
	C593.919922,363.978363 594.484436,365.521851 595.359192,367.913635 
	C595.731262,364.527710 595.994568,362.131805 596.257812,359.735901 
	C596.666016,359.737823 597.074280,359.739746 597.482483,359.741699 
	C597.699829,362.448364 598.098694,365.154724 598.102783,367.861725 
	C598.119995,379.185333 598.094910,390.510406 597.904114,401.831909 
	C597.859802,404.459229 596.894043,407.060364 596.714722,409.698181 
	C596.257202,416.429077 596.081604,423.178955 595.636047,429.910828 
	C595.421692,433.149170 595.378723,436.544861 594.343933,439.555023 
	C591.403992,448.107269 587.993591,456.497772 584.648010,465.267517 
	C592.415955,469.445099 600.757324,469.345917 609.187988,467.636475 
	C610.265381,467.418030 611.766968,465.629608 611.796143,464.534515 
	C611.926208,459.655823 611.819336,454.743286 611.357849,449.884766 
	C610.953613,445.628479 608.386780,440.924286 609.543945,437.302612 
	C612.355713,428.502533 613.790833,419.912567 612.266479,410.994446 
	C614.410828,418.544098 616.687317,425.867615 617.869446,433.363678 
	C619.134766,441.387421 619.202515,449.592560 620.114807,457.682220 
	C620.679688,462.691040 620.721680,468.412628 628.194092,468.605988 
	C626.921997,473.521881 624.633911,476.296021 619.492249,476.263275 
	C616.369080,476.243347 613.189453,476.838623 610.128174,477.555145 
	C606.680847,478.362061 602.914551,483.735809 603.421326,487.084656 
	C604.069275,491.365692 607.929443,490.058868 610.582031,490.802795 
	C611.203918,490.977203 611.862915,491.019043 612.504822,491.121887 
	C610.293579,492.387238 607.948364,492.913025 605.642822,493.576508 
	C598.533142,495.622589 596.120972,500.017303 600.167969,506.035553 
	C601.965210,508.708313 606.818298,510.561523 610.311462,510.604950 
	C617.906372,510.699310 625.565369,509.686859 633.098816,508.497986 
	C635.744080,508.080475 638.008423,505.615784 640.617615,504.477570 
	C642.441895,503.681763 644.773743,502.777374 646.502319,503.262665 
	C652.726501,505.010071 658.232056,504.133759 663.536804,500.502319 
	C666.539612,498.446747 669.835876,496.819916 673.000000,495.000000 
z"/>
<path fill="#FFFFFF" opacity="1.000000" stroke="none" 
	d="
M1.000001,188.000000 
	C1.000000,125.723045 1.000000,63.446095 1.000000,1.000000 
	C99.687500,1.000000 198.375092,1.000000 297.545959,1.311378 
	C298.049164,1.829606 298.069122,2.036457 298.163086,2.646362 
	C296.769287,9.289818 295.301514,15.530217 293.812134,21.862463 
	C291.353302,22.004471 288.481995,21.387630 286.462067,22.426386 
	C278.892731,26.318945 274.502197,21.530954 269.912567,17.039124 
	C267.415436,14.595214 265.019653,12.040349 262.687622,9.437481 
	C260.838867,7.374058 259.156647,5.161444 257.400482,3.015074 
	C256.904785,3.324598 256.409088,3.634121 255.913406,3.943645 
	C255.576477,5.498104 255.143265,7.038768 254.918304,8.609265 
	C253.481033,18.644035 256.564545,27.335817 262.948486,34.983704 
	C265.869415,38.482899 266.570007,41.773228 263.052185,45.429062 
	C259.252167,49.378223 256.030701,53.924381 252.001007,57.600880 
	C248.090851,61.168343 246.810059,65.176544 247.769821,70.093430 
	C248.841583,75.584106 247.817810,80.629890 245.198776,85.506851 
	C243.551056,88.575111 242.188461,91.796486 240.377518,95.024483 
	C239.264526,96.638184 238.471985,98.176575 237.648880,100.078941 
	C234.506989,106.672073 231.941116,113.258553 228.151520,119.043396 
	C222.968399,126.955460 221.843567,134.640854 224.629044,143.802338 
	C226.838257,151.068420 230.523682,156.750336 236.442322,160.977921 
	C242.395798,165.230408 246.382965,165.421494 251.730026,160.540817 
	C255.270340,157.309296 257.265381,152.384827 259.920685,148.613098 
	C260.521973,151.869858 261.154785,154.731781 261.787598,157.593704 
	C259.528595,160.109604 258.440521,163.051270 257.248810,165.950333 
	C256.198486,168.505402 255.459656,171.337845 253.832657,173.476868 
	C249.872910,178.682755 245.584106,183.652344 241.227249,188.538239 
	C236.854309,193.442169 234.462692,200.656433 226.461166,201.514603 
	C225.874512,201.577530 225.327759,202.570114 224.871811,203.208588 
	C219.802887,210.306580 215.543732,218.185181 209.538864,224.370468 
	C196.905212,237.383667 183.836990,250.070892 170.049667,261.840607 
	C156.818512,273.135529 142.453415,283.102081 129.009583,293.330597 
	C116.891724,285.024933 105.756149,277.469757 94.733612,269.753174 
	C93.106049,268.613739 91.109917,266.866119 90.811523,265.136444 
	C87.447136,245.634613 80.937988,227.103912 72.676857,209.293396 
	C66.844505,196.719177 59.525860,184.818298 52.534382,172.812698 
	C51.280499,170.659531 47.095169,169.813828 49.996857,166.316559 
	C51.839653,164.095505 53.973259,161.902969 56.425976,160.463715 
	C58.646282,159.160873 61.451508,158.788086 64.043091,158.200470 
	C67.856018,157.335953 68.593544,155.071472 67.866333,151.499435 
	C67.472588,149.565384 67.866966,147.418030 68.167442,145.405960 
	C68.906158,140.459366 72.962509,135.725983 67.410927,130.661163 
	C63.539425,127.129120 64.791275,124.338318 69.922714,122.812309 
	C77.265846,120.628563 79.418839,118.099571 79.518761,111.120674 
	C76.550034,111.120674 73.517242,110.725540 70.627647,111.200874 
	C64.105751,112.273712 59.122272,109.447182 54.305470,105.698051 
	C41.419292,95.668175 27.842154,96.885704 17.847378,109.648598 
	C12.426647,116.570633 8.542907,124.377724 13.383303,133.595428 
	C15.580191,137.779007 16.948381,142.445862 19.467842,146.399399 
	C22.411333,151.018326 20.442688,153.962265 17.584356,157.424820 
	C14.365117,161.324585 11.182096,165.396835 8.844675,169.846527 
	C5.787934,175.665573 3.575599,181.928207 1.000001,188.000000 
z"/>
<path fill="#FFFFFF" opacity="1.000000" stroke="none" 
	d="
M300.000000,0.999998 
	C424.270844,1.000000 548.541687,1.000000 673.000000,1.000000 
	C673.000000,161.689941 673.000000,322.379974 672.743530,483.279785 
	C671.688416,481.678375 670.559814,479.938965 670.147400,478.043732 
	C668.220520,469.189301 666.979004,460.159027 664.602600,451.433960 
	C656.460510,421.539490 647.864563,391.727234 649.474487,360.270111 
	C650.117004,347.714539 650.925415,335.096710 652.882935,322.700623 
	C654.585449,311.919739 658.111145,301.434082 660.589905,290.761963 
	C661.047424,288.792053 660.392639,286.551056 660.182434,284.442047 
	C659.915527,281.763489 659.044495,279.024689 659.371399,276.429932 
	C660.369080,268.509857 661.650513,260.699371 654.146057,254.882034 
	C653.102661,254.073212 652.133240,253.099686 651.360352,252.034897 
	C650.824280,251.296326 650.135254,249.865646 650.452393,249.435394 
	C653.578491,245.194458 650.258667,240.975372 648.688049,238.543457 
	C642.495728,228.954941 641.780640,217.922394 640.082886,207.515106 
	C636.778931,187.262146 633.651794,167.184158 624.328613,148.587524 
	C621.283020,142.512589 617.468201,137.768127 610.734924,135.529648 
	C609.291626,135.049835 607.814453,132.423553 607.749939,130.732697 
	C607.694885,129.293030 609.337097,127.041435 610.773621,126.430252 
	C615.306274,124.501770 620.095154,123.175415 624.784851,121.616058 
	C625.467773,121.154770 626.150696,120.693481 626.833557,120.232193 
	C624.924500,119.223434 623.020020,118.205780 621.105408,117.207603 
	C614.820984,113.931282 611.079712,109.003654 610.051331,101.791496 
	C608.999390,94.414322 603.705688,90.107269 597.844116,86.202232 
	C592.313843,82.517845 586.838074,83.696907 581.093567,85.204239 
	C569.890381,88.143921 564.799683,96.386833 561.535889,106.659225 
	C556.316772,106.626495 551.410278,106.001953 546.717957,106.739670 
	C530.461121,109.295471 514.278687,112.324982 497.676849,115.085442 
	C493.047028,112.971291 488.561279,111.334251 484.626770,108.830856 
	C478.499359,104.932228 472.894440,100.123314 464.795227,101.875145 
	C463.597687,102.134178 462.138855,101.703362 460.920837,101.261284 
	C455.208069,99.187851 450.268127,101.352516 445.355927,103.881195 
	C444.222504,104.464661 443.032745,104.938744 441.491455,105.316864 
	C432.022766,103.139076 423.074585,101.019638 415.180603,95.464500 
	C402.120117,86.273567 392.191193,72.778046 376.345795,67.387802 
	C372.643646,66.128410 369.222534,64.033661 365.691864,62.283382 
	C363.930176,61.410034 362.122375,60.582912 360.492767,59.498508 
	C355.594391,56.239002 350.805389,52.815113 345.907562,49.554775 
	C343.702484,48.086956 340.858002,47.301014 339.135010,45.437141 
	C332.510529,38.270988 323.437164,35.747673 314.733429,31.766918 
	C312.938293,31.125647 311.406006,30.709717 309.650787,29.848465 
	C311.805847,19.982246 309.298004,11.899214 302.799011,4.858391 
	C301.728760,3.698946 300.926270,2.292359 300.000000,0.999998 
z"/>
<path fill="#646567" opacity="1.000000" stroke="none" 
	d="
M309.873749,30.293789 
	C311.406006,30.709717 312.938293,31.125647 314.681732,32.168961 
	C316.103302,37.592201 317.798370,42.327694 318.404968,47.198742 
	C319.216797,53.717682 319.703094,60.370277 319.341583,66.910896 
	C319.081818,71.610825 316.621643,76.170052 316.207123,80.885582 
	C315.740784,86.190102 315.380035,90.279343 310.687805,94.636337 
	C301.377380,103.281525 293.579132,113.576538 285.378296,123.375786 
	C283.886261,125.158646 283.452972,127.827568 282.605377,129.904968 
	C287.502563,129.904968 291.124268,129.904968 294.746002,129.904968 
	C294.148865,131.326141 293.957153,133.308578 292.890198,134.079254 
	C284.740143,139.966049 277.669586,146.453461 273.274750,155.983368 
	C270.274384,162.489441 265.345795,168.154999 260.978058,173.970093 
	C254.818893,182.170242 248.292419,190.094284 242.119308,198.284332 
	C240.386337,200.583511 239.483047,203.491287 237.924927,205.945786 
	C237.081207,207.274841 235.760284,208.371002 234.477448,209.336914 
	C231.672745,211.448730 228.310272,212.992081 225.952728,215.498566 
	C204.587479,238.213364 182.839478,260.544312 158.457428,280.060394 
	C150.192245,286.676086 140.967133,292.092468 132.270706,297.995789 
	C136.403961,309.441315 143.324509,320.349365 142.136398,333.555176 
	C142.002350,335.045197 142.454834,336.988831 141.679306,337.953461 
	C137.464767,343.195435 137.810852,349.441711 136.968658,355.545044 
	C136.301727,360.378387 133.035721,361.914917 128.485245,359.956940 
	C125.955940,358.868652 123.435951,357.244965 121.553452,355.255371 
	C113.044891,346.262878 106.673897,335.855713 104.394096,323.628601 
	C103.459625,318.616791 104.291328,313.072296 105.283981,307.957306 
	C106.458603,301.904633 102.623894,293.693909 95.996262,291.326111 
	C96.468918,294.951294 96.776314,298.293579 97.360039,301.586884 
	C98.693008,309.107208 98.747963,309.097473 92.115486,311.336456 
	C92.356529,316.832947 92.736984,322.165863 92.702957,327.496124 
	C92.695984,328.588806 91.137138,329.671600 89.619431,331.628052 
	C89.227051,328.838745 89.011810,327.308563 88.834785,326.050140 
	C86.978859,327.755768 84.978020,329.296936 83.391380,331.186005 
	C82.664764,332.051117 82.474228,333.609711 82.514114,334.838409 
	C82.989647,349.486328 83.445374,364.136444 84.127411,378.775696 
	C84.770866,392.586853 83.543449,406.021729 77.719185,418.797791 
	C73.699913,427.614410 70.391060,436.440887 73.993256,446.504913 
	C77.249092,455.601227 74.414124,465.463196 77.407066,474.973511 
	C80.070045,483.435272 86.716820,486.502899 94.113449,486.998962 
	C98.795944,487.313049 104.197113,491.860229 104.122986,496.585632 
	C104.097923,498.183289 102.720886,500.736908 101.407768,501.168549 
	C95.634598,503.066376 89.682838,504.454193 83.743454,505.794952 
	C81.668724,506.263275 79.443489,506.064850 76.604095,506.204529 
	C77.184380,508.023224 77.441109,509.627716 78.170708,510.976379 
	C81.362411,516.876160 80.376221,519.008667 73.877602,519.868713 
	C72.723869,520.021362 71.570457,520.176514 70.208450,520.665283 
	C61.312435,521.000000 52.624874,521.000000 43.275188,520.667175 
	C36.723618,519.697693 30.846361,518.885132 24.941158,518.475769 
	C19.483101,518.097473 16.788181,516.158752 17.190430,512.266418 
	C17.769817,506.660004 18.554443,501.064972 18.864830,495.443695 
	C19.102215,491.144531 19.939407,486.276855 18.315832,482.642029 
	C16.617970,478.840912 16.429371,476.029175 17.815872,472.392395 
	C18.668633,470.155640 18.792624,467.564087 18.867992,465.120209 
	C19.416254,447.342743 20.335020,429.559082 20.213530,411.783691 
	C20.104231,395.792084 22.486256,380.450043 27.248413,365.196167 
	C28.747795,360.393433 29.132889,354.177612 25.232033,349.399902 
	C21.116005,344.358673 20.489658,338.648712 21.223364,332.462341 
	C22.240257,323.888153 22.142956,323.876617 13.977692,321.025635 
	C13.977692,310.613831 13.696428,299.997284 14.083467,289.405151 
	C14.314630,283.078888 17.098490,276.800110 13.570519,270.516235 
	C12.907365,269.335022 13.398113,267.552521 13.146608,266.083405 
	C12.701476,263.483246 12.247960,260.867035 11.524412,258.335724 
	C10.065566,253.231949 8.127912,248.249725 6.921022,243.092590 
	C4.740890,233.776703 2.952171,224.369232 1.000001,215.000000 
	C1.000000,206.312439 1.000000,197.624863 1.000001,188.468658 
	C3.575599,181.928207 5.787934,175.665573 8.844675,169.846527 
	C11.182096,165.396835 14.365117,161.324585 17.584356,157.424820 
	C20.442688,153.962265 22.411333,151.018326 19.467842,146.399399 
	C16.948381,142.445862 15.580191,137.779007 13.383303,133.595428 
	C8.542907,124.377724 12.426647,116.570633 17.847378,109.648598 
	C27.842154,96.885704 41.419292,95.668175 54.305470,105.698051 
	C59.122272,109.447182 64.105751,112.273712 70.627647,111.200874 
	C73.517242,110.725540 76.550034,111.120674 79.518761,111.120674 
	C79.418839,118.099571 77.265846,120.628563 69.922714,122.812309 
	C64.791275,124.338318 63.539425,127.129120 67.410927,130.661163 
	C72.962509,135.725983 68.906158,140.459366 68.167442,145.405960 
	C67.866966,147.418030 67.472588,149.565384 67.866333,151.499435 
	C68.593544,155.071472 67.856018,157.335953 64.043091,158.200470 
	C61.451508,158.788086 58.646282,159.160873 56.425976,160.463715 
	C53.973259,161.902969 51.839653,164.095505 49.996857,166.316559 
	C47.095169,169.813828 51.280499,170.659531 52.534382,172.812698 
	C59.525860,184.818298 66.844505,196.719177 72.676857,209.293396 
	C80.937988,227.103912 87.447136,245.634613 90.811523,265.136444 
	C91.109917,266.866119 93.106049,268.613739 94.733612,269.753174 
	C105.756149,277.469757 116.891724,285.024933 129.009583,293.330597 
	C142.453415,283.102081 156.818512,273.135529 170.049667,261.840607 
	C183.836990,250.070892 196.905212,237.383667 209.538864,224.370468 
	C215.543732,218.185181 219.802887,210.306580 224.871811,203.208588 
	C225.327759,202.570114 225.874512,201.577530 226.461166,201.514603 
	C234.462692,200.656433 236.854309,193.442169 241.227249,188.538239 
	C245.584106,183.652344 249.872910,178.682755 253.832657,173.476868 
	C255.459656,171.337845 256.198486,168.505402 257.248810,165.950333 
	C258.440521,163.051270 259.528595,160.109604 261.787598,157.593704 
	C261.154785,154.731781 260.521973,151.869858 260.047607,148.287506 
	C261.831909,146.723557 263.457703,145.880035 265.338623,145.289459 
	C266.149261,146.790222 266.704742,148.038040 267.596893,150.042191 
	C270.647827,146.780151 273.320221,144.374222 275.386414,141.528214 
	C276.462372,140.046188 276.469238,137.787994 276.916504,135.522903 
	C276.242950,133.104797 275.611877,131.044189 275.343994,128.934082 
	C280.907013,126.509567 281.041138,126.078812 276.703888,121.069687 
	C276.009857,124.342606 275.513947,126.681122 274.716827,128.831192 
	C272.539368,123.715874 270.923035,118.453651 266.078156,115.617699 
	C256.716614,110.137917 247.156967,104.996597 237.679443,99.714966 
	C238.471985,98.176575 239.264526,96.638184 240.799622,95.084747 
	C244.806778,96.108803 248.483017,96.512260 251.257141,98.308746 
	C258.918213,103.270035 266.303711,108.678802 273.600342,114.173370 
	C278.562775,117.910210 280.214722,118.265594 284.659088,113.734741 
	C289.767822,108.526543 294.209625,102.656792 299.391663,97.529778 
	C305.344391,91.640221 308.822571,84.063446 310.228119,76.557243 
	C312.674713,63.491520 314.851837,50.022617 310.742462,36.669086 
	C310.120026,34.646420 310.147095,32.423878 309.873749,30.293789 
M122.852837,348.046326 
	C122.852837,348.046326 122.981361,348.042633 123.250702,348.660370 
	C125.726608,350.596680 128.202515,352.533020 131.662827,355.239197 
	C131.882675,352.001617 131.997177,350.315430 132.094559,348.881409 
	C128.723953,348.590363 125.840126,348.341370 122.852837,348.046326 
M128.843445,321.742249 
	C128.503143,319.807434 128.162827,317.872620 127.908813,316.428436 
	C125.909195,315.740326 124.353882,315.332825 122.908386,314.681610 
	C119.698280,313.235382 117.627289,313.737183 118.005737,317.702515 
	C118.554565,323.452942 118.923996,329.285583 120.266800,334.867371 
	C120.926987,337.611664 123.356506,340.120636 125.489868,342.224487 
	C126.317459,343.040680 128.776871,342.929626 130.031998,342.308899 
	C130.771454,341.943237 130.920990,339.718994 130.793182,338.382568 
	C130.289749,333.118317 129.571304,327.874634 128.843445,321.742249 
M113.053108,321.468414 
	C112.551476,317.994720 115.137497,313.392426 109.396263,311.496979 
	C108.269913,319.237091 108.390350,326.414001 113.728493,333.245514 
	C113.472397,329.188477 113.258385,325.798096 113.053108,321.468414 
M134.014069,322.708130 
	C134.187103,324.692352 134.312042,326.682312 134.546799,328.659210 
	C134.778503,330.610565 135.121323,332.548706 135.415390,334.492615 
	C137.054382,328.884613 138.066559,323.424469 133.994339,318.471710 
	C133.994339,319.594025 133.994339,320.716309 134.014069,322.708130 
z"/>
<path fill="#636466" opacity="1.000000" stroke="none" 
	d="
M441.868927,105.463165 
	C443.032745,104.938744 444.222504,104.464661 445.355927,103.881195 
	C450.268127,101.352516 455.208069,99.187851 460.920837,101.261284 
	C462.138855,101.703362 463.597687,102.134178 464.795227,101.875145 
	C472.894440,100.123314 478.499359,104.932228 484.626770,108.830856 
	C488.561279,111.334251 493.047028,112.971291 497.694794,115.429977 
	C504.470428,118.877342 510.702606,122.231117 517.238525,124.817017 
	C524.918762,127.855637 533.169128,129.588486 540.572815,133.137924 
	C544.747620,135.139374 548.387573,136.378601 553.006714,136.113678 
	C557.174988,135.874619 561.408997,136.902298 565.622559,137.273834 
	C567.267029,137.418839 568.934998,137.297562 571.578430,137.297562 
	C569.514709,132.866394 567.999329,129.612671 566.483948,126.358940 
	C567.046448,119.651672 566.203613,112.884834 561.946716,106.691963 
	C564.799683,96.386833 569.890381,88.143921 581.093567,85.204239 
	C586.838074,83.696907 592.313843,82.517845 597.844116,86.202232 
	C603.705688,90.107269 608.999390,94.414322 610.051331,101.791496 
	C611.079712,109.003654 614.820984,113.931282 621.105408,117.207603 
	C623.020020,118.205780 624.924500,119.223434 626.833557,120.232193 
	C626.150696,120.693481 625.467773,121.154770 624.784851,121.616058 
	C620.095154,123.175415 615.306274,124.501770 610.773621,126.430252 
	C609.337097,127.041435 607.694885,129.293030 607.749939,130.732697 
	C607.814453,132.423553 609.291626,135.049835 610.734924,135.529648 
	C617.468201,137.768127 621.283020,142.512589 624.328613,148.587524 
	C633.651794,167.184158 636.778931,187.262146 640.082886,207.515106 
	C641.780640,217.922394 642.495728,228.954941 648.688049,238.543457 
	C650.258667,240.975372 653.578491,245.194458 650.452393,249.435394 
	C650.135254,249.865646 650.824280,251.296326 651.360352,252.034897 
	C652.133240,253.099686 653.102661,254.073212 654.146057,254.882034 
	C661.650513,260.699371 660.369080,268.509857 659.371399,276.429932 
	C659.044495,279.024689 659.915527,281.763489 660.182434,284.442047 
	C660.392639,286.551056 661.047424,288.792053 660.589905,290.761963 
	C658.111145,301.434082 654.585449,311.919739 652.882935,322.700623 
	C650.925415,335.096710 650.117004,347.714539 649.474487,360.270111 
	C647.864563,391.727234 656.460510,421.539490 664.602600,451.433960 
	C666.979004,460.159027 668.220520,469.189301 670.147400,478.043732 
	C670.559814,479.938965 671.688416,481.678375 672.743530,483.744781 
	C673.000000,487.361298 673.000000,490.722565 673.000000,494.541931 
	C669.835876,496.819916 666.539612,498.446747 663.536804,500.502319 
	C658.232056,504.133759 652.726501,505.010071 646.502319,503.262665 
	C644.773743,502.777374 642.441895,503.681763 640.617615,504.477570 
	C638.008423,505.615784 635.744080,508.080475 633.098816,508.497986 
	C625.565369,509.686859 617.906372,510.699310 610.311462,510.604950 
	C606.818298,510.561523 601.965210,508.708313 600.167969,506.035553 
	C596.120972,500.017303 598.533142,495.622589 605.642822,493.576508 
	C607.948364,492.913025 610.293579,492.387238 612.504822,491.121887 
	C611.862915,491.019043 611.203918,490.977203 610.582031,490.802795 
	C607.929443,490.058868 604.069275,491.365692 603.421326,487.084656 
	C602.914551,483.735809 606.680847,478.362061 610.128174,477.555145 
	C613.189453,476.838623 616.369080,476.243347 619.492249,476.263275 
	C624.633911,476.296021 626.921997,473.521881 628.194092,468.605988 
	C620.721680,468.412628 620.679688,462.691040 620.114807,457.682220 
	C619.202515,449.592560 619.134766,441.387421 617.869446,433.363678 
	C616.687317,425.867615 614.410828,418.544098 612.117432,410.710266 
	C609.151123,402.324585 606.625916,394.390350 604.253052,386.410828 
	C603.598083,384.208099 603.224854,381.885864 603.018372,379.591827 
	C602.201172,370.513824 601.397217,361.432281 600.783630,352.338898 
	C599.949585,339.977448 598.957703,327.684998 601.077637,315.232178 
	C601.868225,310.587769 600.460693,304.736328 598.066162,300.581940 
	C594.661255,294.674866 592.028564,288.724060 591.040100,282.101959 
	C589.284485,270.340454 587.831116,258.533783 586.304993,247.146439 
	C575.501953,244.784576 564.616638,242.724976 553.917603,239.947784 
	C547.295715,238.228928 543.162476,240.572937 539.636353,245.958801 
	C530.978516,241.722504 522.525513,242.181778 514.019409,244.634262 
	C515.355469,241.424210 516.658630,238.576096 517.961853,235.727982 
	C517.273682,236.309662 516.585510,236.891342 515.897339,237.473022 
	C514.948120,235.567032 513.105103,233.551102 513.321899,231.788559 
	C513.507996,230.276108 515.899292,228.128571 517.574341,227.856583 
	C526.666565,226.380142 535.811951,224.985580 544.992920,224.381485 
	C551.919189,223.925751 559.157471,225.930069 565.849915,224.672882 
	C580.257935,221.966354 581.271851,223.558350 575.724060,208.349060 
	C575.097656,206.631683 574.041931,205.001785 573.763550,203.239960 
	C573.045166,198.693176 571.603455,193.914108 572.356750,189.557404 
	C573.700745,181.784485 576.445007,174.253265 578.612183,166.623383 
	C579.139404,164.767487 579.699280,162.920868 580.509705,160.167587 
	C569.531555,158.727402 559.259460,157.103546 548.927124,156.097733 
	C537.286499,154.964523 526.395752,152.492325 517.453552,144.167526 
	C511.622681,138.739227 505.395844,133.717606 499.143188,128.770569 
	C496.792450,126.910706 493.868195,125.775642 490.604401,123.979370 
	C489.981171,129.719299 487.694427,129.793457 484.541840,127.364983 
	C483.360046,126.454636 482.106567,125.618698 481.023224,124.602341 
	C474.486053,118.469421 467.108887,114.047089 458.015991,112.956566 
	C457.054779,112.841286 455.613190,112.630600 455.286041,112.000954 
	C453.300476,108.179306 449.848236,109.022820 446.680084,109.063423 
	C444.069580,109.096870 441.993225,108.645737 441.868927,105.463165 
z"/>
<path fill="#272526" opacity="1.000000" stroke="none" 
	d="
M309.650787,29.848467 
	C310.147095,32.423878 310.120026,34.646420 310.742462,36.669086 
	C314.851837,50.022617 312.674713,63.491520 310.228119,76.557243 
	C308.822571,84.063446 305.344391,91.640221 299.391663,97.529778 
	C294.209625,102.656792 289.767822,108.526543 284.659088,113.734741 
	C280.214722,118.265594 278.562775,117.910210 273.600342,114.173370 
	C266.303711,108.678802 258.918213,103.270035 251.257141,98.308746 
	C248.483017,96.512260 244.806778,96.108803 241.120071,95.009438 
	C242.188461,91.796486 243.551056,88.575111 245.198776,85.506851 
	C247.817810,80.629890 248.841583,75.584106 247.769821,70.093430 
	C246.810059,65.176544 248.090851,61.168343 252.001007,57.600880 
	C256.030701,53.924381 259.252167,49.378223 263.052185,45.429062 
	C266.570007,41.773228 265.869415,38.482899 262.948486,34.983704 
	C256.564545,27.335817 253.481033,18.644035 254.918304,8.609265 
	C255.143265,7.038768 255.576477,5.498104 255.913406,3.943645 
	C256.409088,3.634121 256.904785,3.324598 257.400482,3.015074 
	C259.156647,5.161444 260.838867,7.374058 262.687622,9.437481 
	C265.019653,12.040349 267.415436,14.595214 269.912567,17.039124 
	C274.502197,21.530954 278.892731,26.318945 286.462067,22.426386 
	C288.481995,21.387630 291.353302,22.004471 293.812134,21.862463 
	C295.301514,15.530217 296.769287,9.289818 298.356262,2.471089 
	C298.650299,1.595169 298.825134,1.297579 299.000000,0.999994 
	C299.000000,1.000000 299.500000,1.000000 299.750000,0.999998 
	C300.926270,2.292359 301.728760,3.698946 302.799011,4.858391 
	C309.298004,11.899214 311.805847,19.982246 309.650787,29.848467 
z"/>
<path fill="#FDFDFD" opacity="1.000000" stroke="none" 
	d="
M1.000001,215.468658 
	C2.952171,224.369232 4.740890,233.776703 6.921022,243.092590 
	C8.127912,248.249725 10.065566,253.231949 11.524412,258.335724 
	C12.247960,260.867035 12.701476,263.483246 13.146608,266.083405 
	C13.398113,267.552521 12.907365,269.335022 13.570519,270.516235 
	C17.098490,276.800110 14.314630,283.078888 14.083467,289.405151 
	C13.696428,299.997284 13.977692,310.613831 13.977692,321.025635 
	C22.142956,323.876617 22.240257,323.888153 21.223364,332.462341 
	C20.489658,338.648712 21.116005,344.358673 25.232033,349.399902 
	C29.132889,354.177612 28.747795,360.393433 27.248413,365.196167 
	C22.486256,380.450043 20.104231,395.792084 20.213530,411.783691 
	C20.335020,429.559082 19.416254,447.342743 18.867992,465.120209 
	C18.792624,467.564087 18.668633,470.155640 17.815872,472.392395 
	C16.429371,476.029175 16.617970,478.840912 18.315832,482.642029 
	C19.939407,486.276855 19.102215,491.144531 18.864830,495.443695 
	C18.554443,501.064972 17.769817,506.660004 17.190430,512.266418 
	C16.788181,516.158752 19.483101,518.097473 24.941158,518.475769 
	C30.846361,518.885132 36.723618,519.697693 42.806534,520.667175 
	C29.017616,521.000000 15.035233,521.000000 1.000000,521.000000 
	C1.000000,419.312439 1.000000,317.624878 1.000001,215.468658 
z"/>
<path fill="#FFFFFF" opacity="1.000000" stroke="none" 
	d="
M298.750000,0.999994 
	C298.825134,1.297579 298.650299,1.595169 298.282288,2.068034 
	C298.069122,2.036457 298.049164,1.829606 298.014587,1.311378 
	C298.000000,1.000000 298.500000,1.000000 298.750000,0.999994 
z"/>
<path fill="#272526" opacity="1.000000" stroke="none" 
	d="
M441.491455,105.316864 
	C441.993225,108.645737 444.069580,109.096870 446.680084,109.063423 
	C449.848236,109.022820 453.300476,108.179306 455.286041,112.000954 
	C455.613190,112.630600 457.054779,112.841286 458.015991,112.956566 
	C467.108887,114.047089 474.486053,118.469421 481.023224,124.602341 
	C482.106567,125.618698 483.360046,126.454636 484.541840,127.364983 
	C487.694427,129.793457 489.981171,129.719299 490.604401,123.979370 
	C493.868195,125.775642 496.792450,126.910706 499.143188,128.770569 
	C505.395844,133.717606 511.622681,138.739227 517.453552,144.167526 
	C526.395752,152.492325 537.286499,154.964523 548.927124,156.097733 
	C559.259460,157.103546 569.531555,158.727402 580.509705,160.167587 
	C579.699280,162.920868 579.139404,164.767487 578.612183,166.623383 
	C576.445007,174.253265 573.700745,181.784485 572.356750,189.557404 
	C571.603455,193.914108 573.045166,198.693176 573.763550,203.239960 
	C574.041931,205.001785 575.097656,206.631683 575.724060,208.349060 
	C581.271851,223.558350 580.257935,221.966354 565.849915,224.672882 
	C559.157471,225.930069 551.919189,223.925751 544.992920,224.381485 
	C535.811951,224.985580 526.666565,226.380142 517.574341,227.856583 
	C515.899292,228.128571 513.507996,230.276108 513.321899,231.788559 
	C513.105103,233.551102 514.948120,235.567032 515.897339,237.473022 
	C516.585510,236.891342 517.273682,236.309662 517.961853,235.727982 
	C516.658630,238.576096 515.355469,241.424210 513.752869,244.837219 
	C509.585327,248.694489 505.270813,251.591797 501.937592,255.357666 
	C493.857422,264.486725 491.691650,275.849945 491.009155,287.609283 
	C484.441559,286.925323 477.873932,286.241364 471.045624,285.530273 
	C476.383026,303.071991 472.588989,321.089722 472.088226,339.028625 
	C471.775726,350.222961 472.077667,361.208679 474.644592,372.204102 
	C475.609314,376.336456 475.329865,381.319061 473.932129,385.326080 
	C471.067444,393.538452 471.030151,401.761841 472.538818,409.931091 
	C474.586548,421.019592 477.919464,431.874359 479.869293,442.975494 
	C480.661835,447.487762 480.092041,452.648682 478.679108,457.044159 
	C476.493042,463.844757 477.186676,469.891907 480.997101,475.563232 
	C484.521210,480.808533 483.115997,486.237823 481.766235,491.420746 
	C481.345917,493.034821 477.851349,493.848328 475.072601,494.739258 
	C469.292664,494.320679 464.191833,494.355377 459.122620,493.972290 
	C457.353058,493.838593 455.661346,492.674622 453.934082,491.981140 
	C456.328766,482.835236 458.964966,473.742371 460.990875,464.515472 
	C461.728973,461.153687 461.147003,457.464386 460.923676,453.939972 
	C460.707581,450.529907 458.888947,446.621460 460.010651,443.830963 
	C464.724426,432.104584 461.927124,420.528320 460.628784,408.849030 
	C459.530182,398.966431 457.185181,389.591064 451.456573,381.204041 
	C450.146729,379.286346 449.374756,376.434570 449.591736,374.129089 
	C451.562225,353.192627 447.200745,333.066498 442.082916,313.040924 
	C440.480896,306.772278 438.603607,300.545715 436.385956,294.470154 
	C433.897583,287.652924 430.057556,285.848602 423.192871,287.506409 
	C422.384338,287.701630 421.570526,287.875610 420.763611,288.077087 
	C410.618866,290.610809 406.752197,295.539581 406.752686,306.092682 
	C406.753967,333.559845 406.209351,361.044159 407.023254,388.487793 
	C407.515228,405.076630 409.862762,421.636017 411.904846,438.143250 
	C413.043152,447.344666 412.579895,455.330231 403.756989,460.865631 
	C399.191589,463.729828 399.793549,468.433319 400.560455,473.039764 
	C401.254700,477.209869 402.075897,481.447906 401.924530,485.622742 
	C401.869568,487.138947 399.328979,489.571045 397.639069,489.846497 
	C390.589508,490.995514 383.435608,491.521606 376.310913,492.177734 
	C375.008667,492.297638 373.624634,492.120056 372.346039,491.805054 
	C366.129181,490.273285 364.486176,486.564880 368.114044,481.377838 
	C370.081726,478.564514 373.073395,476.489960 375.266510,473.806976 
	C379.754791,468.316132 384.073547,462.682739 388.321930,457.003235 
	C389.177307,455.859711 389.686249,454.289703 389.889282,452.850616 
	C393.005005,430.764679 392.474731,408.791534 387.799438,386.938690 
	C386.791809,382.228790 385.562225,377.453339 385.449219,372.684052 
	C384.870575,348.267853 377.276794,325.578186 368.555328,303.209930 
	C364.545593,292.926025 362.504486,282.578400 363.042847,271.535950 
	C363.166565,268.998383 361.474213,265.727600 359.575256,263.846649 
	C350.922211,255.275574 345.588623,244.969925 344.588776,233.057816 
	C343.962494,225.596344 345.311768,217.904892 346.317932,210.389374 
	C347.243744,203.473984 349.180847,196.693085 350.085571,189.776169 
	C350.438049,187.081482 349.909393,183.751328 348.547943,181.436493 
	C339.202240,165.546539 329.537537,149.844055 319.955353,134.093491 
	C317.707886,130.399231 315.252655,126.825470 313.132782,123.061241 
	C311.244141,119.707619 309.110382,119.715614 306.259705,121.779694 
	C302.638855,124.401474 298.889038,126.845169 294.970398,129.635300 
	C291.124268,129.904968 287.502563,129.904968 282.605377,129.904968 
	C283.452972,127.827568 283.886261,125.158646 285.378296,123.375786 
	C293.579132,113.576538 301.377380,103.281525 310.687805,94.636337 
	C315.380035,90.279343 315.740784,86.190102 316.207123,80.885582 
	C316.621643,76.170052 319.081818,71.610825 319.341583,66.910896 
	C319.703094,60.370277 319.216797,53.717682 318.404968,47.198742 
	C317.798370,42.327694 316.103302,37.592201 314.944611,32.394302 
	C323.437164,35.747673 332.510529,38.270988 339.135010,45.437141 
	C340.858002,47.301014 343.702484,48.086956 345.907562,49.554775 
	C350.805389,52.815113 355.594391,56.239002 360.492767,59.498508 
	C362.122375,60.582912 363.930176,61.410034 365.691864,62.283382 
	C369.222534,64.033661 372.643646,66.128410 376.345795,67.387802 
	C392.191193,72.778046 402.120117,86.273567 415.180603,95.464500 
	C423.074585,101.019638 432.022766,103.139076 441.491455,105.316864 
z"/>
<path fill="#282627" opacity="1.000000" stroke="none" 
	d="
M540.011353,245.998322 
	C543.162476,240.572937 547.295715,238.228928 553.917603,239.947784 
	C564.616638,242.724976 575.501953,244.784576 586.304993,247.146439 
	C587.831116,258.533783 589.284485,270.340454 591.040100,282.101959 
	C592.028564,288.724060 594.661255,294.674866 598.066162,300.581940 
	C600.460693,304.736328 601.868225,310.587769 601.077637,315.232178 
	C598.957703,327.684998 599.949585,339.977448 600.783630,352.338898 
	C601.397217,361.432281 602.201172,370.513824 603.018372,379.591827 
	C603.224854,381.885864 603.598083,384.208099 604.253052,386.410828 
	C606.625916,394.390350 609.151123,402.324585 611.767883,410.560089 
	C613.790833,419.912567 612.355713,428.502533 609.543945,437.302612 
	C608.386780,440.924286 610.953613,445.628479 611.357849,449.884766 
	C611.819336,454.743286 611.926208,459.655823 611.796143,464.534515 
	C611.766968,465.629608 610.265381,467.418030 609.187988,467.636475 
	C600.757324,469.345917 592.415955,469.445099 584.648010,465.267517 
	C587.993591,456.497772 591.403992,448.107269 594.343933,439.555023 
	C595.378723,436.544861 595.421692,433.149170 595.636047,429.910828 
	C596.081604,423.178955 596.257202,416.429077 596.714722,409.698181 
	C596.894043,407.060364 597.859802,404.459229 597.904114,401.831909 
	C598.094910,390.510406 598.119995,379.185333 598.102783,367.861725 
	C598.098694,365.154724 597.699829,362.448364 597.482483,359.741699 
	C597.074280,359.739746 596.666016,359.737823 596.257812,359.735901 
	C595.994568,362.131805 595.731262,364.527710 595.359192,367.913635 
	C594.484436,365.521851 593.919922,363.978363 592.906616,361.207672 
	C592.906616,367.182556 592.906616,371.806671 592.906616,376.430817 
	C592.687683,376.457611 592.468750,376.484406 592.249878,376.511230 
	C590.843323,370.909058 589.436829,365.306915 588.030334,359.704773 
	C587.501709,359.771973 586.973083,359.839203 586.444458,359.906433 
	C586.444458,366.013611 586.444458,372.120789 586.444458,378.227997 
	C586.169739,378.224854 585.894958,378.221741 585.620239,378.218628 
	C584.835571,372.485046 584.050964,366.751434 583.266296,361.017853 
	C582.755066,361.074799 582.243774,361.131744 581.732544,361.188690 
	C581.732544,364.340851 581.732544,367.493011 581.732544,372.115570 
	C579.964905,367.027679 578.654541,363.256134 577.344238,359.484619 
	C577.064758,359.536316 576.785339,359.587982 576.505859,359.639679 
	C576.505859,362.085175 576.345764,364.542938 576.532043,366.974152 
	C577.687866,382.063782 579.251343,397.132538 579.934204,412.241913 
	C580.147339,416.958954 579.096924,422.382385 576.773376,426.415802 
	C573.094543,432.801880 572.594727,438.754669 575.087524,445.364807 
	C578.322754,453.943298 575.062561,459.201385 565.789490,459.867432 
	C560.680542,460.234375 555.523621,459.933075 549.065186,459.933075 
	C550.172241,454.937164 550.831116,450.797394 552.037842,446.823914 
	C553.431519,442.234741 555.231201,437.761963 556.991516,433.292603 
	C560.050537,425.525757 560.039734,417.443207 559.999695,409.269318 
	C559.957581,400.667542 560.683533,392.063232 560.693237,383.459625 
	C560.700623,376.974518 560.107727,370.488708 560.115234,363.396393 
	C562.772705,361.976013 565.210693,361.588043 565.162292,358.065674 
	C564.956360,343.068542 565.523499,328.034302 564.626099,313.084595 
	C564.196228,305.922760 564.355835,299.450195 568.408447,292.979187 
	C568.110535,288.104004 567.535767,283.555084 566.929565,278.796326 
	C566.820923,278.296387 566.651978,278.076965 566.301514,277.559692 
	C565.165649,275.105194 564.119568,273.019226 563.087036,270.930664 
	C563.100525,270.928070 563.107727,270.901459 563.081055,270.550262 
	C557.783142,259.837708 549.752014,252.104111 540.011353,245.998322 
z"/>
<path fill="#636466" opacity="1.000000" stroke="none" 
	d="
M566.391174,277.928253 
	C566.651978,278.076965 566.820923,278.296387 566.566528,278.796387 
	C565.257690,279.263489 564.280396,279.520691 564.443909,279.477661 
	C564.443909,282.339478 564.316040,284.359711 564.492920,286.352875 
	C564.595459,287.508423 565.036316,288.703522 565.598450,289.731140 
	C566.294617,291.003662 567.274353,292.121063 568.131592,293.305450 
	C564.355835,299.450195 564.196228,305.922760 564.626099,313.084595 
	C565.523499,328.034302 564.956360,343.068542 565.162292,358.065674 
	C565.210693,361.588043 562.772705,361.976013 560.077271,362.934570 
	C548.328369,364.328125 536.974365,365.967926 525.562744,366.666687 
	C519.494141,367.038300 513.304932,365.949829 507.209076,365.202698 
	C502.472260,364.622101 500.090637,361.858948 499.772095,356.817230 
	C498.723602,340.222107 497.643829,323.618439 495.960114,307.080780 
	C495.497375,302.535919 492.881256,298.210266 491.657715,293.305725 
	C492.563416,290.927948 493.216827,289.053375 493.532684,287.123535 
	C494.112000,283.584595 494.492249,280.013092 495.314148,276.269470 
	C498.223145,275.382141 500.736053,274.466461 503.329803,274.013123 
	C521.914246,270.764618 540.595459,269.890350 559.388733,271.895355 
	C560.212402,271.983215 561.116394,271.318451 562.265076,270.988708 
	C562.734009,270.949219 562.920898,270.925323 563.107727,270.901459 
	C563.107727,270.901459 563.100525,270.928070 563.070007,271.313629 
	C564.156677,273.775543 565.273926,275.851898 566.391174,277.928253 
z"/>
<path fill="#6B6C6D" opacity="1.000000" stroke="none" 
	d="
M494.955505,276.455139 
	C494.492249,280.013092 494.112000,283.584595 493.532684,287.123535 
	C493.216827,289.053375 492.563416,290.927948 491.735596,292.922882 
	C491.343719,291.511505 491.278442,290.004700 491.111176,288.053589 
	C491.691650,275.849945 493.857422,264.486725 501.937592,255.357666 
	C505.270813,251.591797 509.585327,248.694489 513.720032,245.199158 
	C522.525513,242.181778 530.978516,241.722504 539.636353,245.958801 
	C549.752014,252.104111 557.783142,259.837708 563.081055,270.550262 
	C562.920898,270.925323 562.734009,270.949219 562.014221,270.770508 
	C556.597717,264.774963 552.019348,258.678741 546.695618,253.323410 
	C544.214783,250.827835 540.289246,249.768417 536.845825,247.722992 
	C531.781860,243.537552 526.074402,245.293900 520.673950,245.259689 
	C520.108215,245.256088 519.528442,247.459015 518.573730,248.701431 
	C516.122192,248.709885 513.466003,247.793427 512.076294,248.738770 
	C502.319092,255.376175 495.856537,264.251709 494.955505,276.455139 
z"/>
<path fill="#3C3B3B" opacity="1.000000" stroke="none" 
	d="
M453.749268,492.272278 
	C455.661346,492.674622 457.353058,493.838593 459.122620,493.972290 
	C464.191833,494.355377 469.292664,494.320679 474.690704,494.725708 
	C468.577118,495.108948 462.152405,495.306793 455.732666,495.201294 
	C454.995697,495.189178 454.286530,493.483765 453.749268,492.272278 
z"/>
<path fill="#272526" opacity="1.000000" stroke="none" 
	d="
M237.648895,100.078949 
	C247.156967,104.996597 256.716614,110.137917 266.078156,115.617699 
	C270.923035,118.453651 272.539368,123.715874 274.708435,128.821152 
	C275.001282,128.999557 274.980804,128.983597 274.980835,128.983597 
	C275.611877,131.044189 276.242950,133.104797 276.601746,135.653656 
	C272.580811,139.106766 268.832153,142.071655 265.083496,145.036530 
	C263.457703,145.880035 261.831909,146.723557 260.079163,147.892670 
	C257.265381,152.384827 255.270340,157.309296 251.730026,160.540817 
	C246.382965,165.421494 242.395798,165.230408 236.442322,160.977921 
	C230.523682,156.750336 226.838257,151.068420 224.629044,143.802338 
	C221.843567,134.640854 222.968399,126.955460 228.151520,119.043396 
	C231.941116,113.258553 234.506989,106.672073 237.648895,100.078949 
z"/>
<path fill="#272526" opacity="1.000000" stroke="none" 
	d="
M561.535889,106.659225 
	C566.203613,112.884834 567.046448,119.651672 566.483948,126.358940 
	C567.999329,129.612671 569.514709,132.866394 571.578430,137.297562 
	C568.934998,137.297562 567.267029,137.418839 565.622559,137.273834 
	C561.408997,136.902298 557.174988,135.874619 553.006714,136.113678 
	C548.387573,136.378601 544.747620,135.139374 540.572815,133.137924 
	C533.169128,129.588486 524.918762,127.855637 517.238525,124.817017 
	C510.702606,122.231117 504.470428,118.877342 498.085938,115.518761 
	C514.278687,112.324982 530.461121,109.295471 546.717957,106.739670 
	C551.410278,106.001953 556.316772,106.626495 561.535889,106.659225 
z"/>
<path fill="#F9F9F9" opacity="1.000000" stroke="none" 
	d="
M128.888046,322.182800 
	C129.571304,327.874634 130.289749,333.118317 130.793182,338.382568 
	C130.920990,339.718994 130.771454,341.943237 130.031998,342.308899 
	C128.776871,342.929626 126.317459,343.040680 125.489868,342.224487 
	C123.356506,340.120636 120.926987,337.611664 120.266800,334.867371 
	C118.923996,329.285583 118.554565,323.452942 118.005737,317.702515 
	C117.627289,313.737183 119.698280,313.235382 122.908386,314.681610 
	C124.353882,315.332825 125.909195,315.740326 127.908813,316.428436 
	C128.162827,317.872620 128.503143,319.807434 128.888046,322.182800 
z"/>
<path fill="#F1F1F1" opacity="1.000000" stroke="none" 
	d="
M265.338623,145.289474 
	C268.832153,142.071655 272.580811,139.106766 276.644226,136.011139 
	C276.469238,137.787994 276.462372,140.046188 275.386414,141.528214 
	C273.320221,144.374222 270.647827,146.780151 267.596893,150.042191 
	C266.704742,148.038040 266.149261,146.790222 265.338623,145.289474 
z"/>
<path fill="#F9F9F9" opacity="1.000000" stroke="none" 
	d="
M113.048737,321.938049 
	C113.258385,325.798096 113.472397,329.188477 113.728493,333.245514 
	C108.390350,326.414001 108.269913,319.237091 109.396263,311.496979 
	C115.137497,313.392426 112.551476,317.994720 113.048737,321.938049 
z"/>
<path fill="#E7E7E7" opacity="1.000000" stroke="none" 
	d="
M134.004211,322.273376 
	C133.994339,320.716309 133.994339,319.594025 133.994339,318.471710 
	C138.066559,323.424469 137.054382,328.884613 135.415390,334.492615 
	C135.121323,332.548706 134.778503,330.610565 134.546799,328.659210 
	C134.312042,326.682312 134.187103,324.692352 134.004211,322.273376 
z"/>
<path fill="#F1F1F1" opacity="1.000000" stroke="none" 
	d="
M122.956306,348.092346 
	C125.840126,348.341370 128.723953,348.590363 132.094559,348.881409 
	C131.997177,350.315430 131.882675,352.001617 131.662827,355.239197 
	C128.202515,352.533020 125.726608,350.596680 123.106972,348.359558 
	C122.963242,348.058777 122.956306,348.092377 122.956306,348.092346 
z"/>
<path fill="#282627" opacity="1.000000" stroke="none" 
	d="
M275.009674,129.009598 
	C275.513947,126.681122 276.009857,124.342606 276.703888,121.069687 
	C281.041138,126.078812 280.907013,126.509567 275.343994,128.934082 
	C274.980804,128.983597 275.001282,128.999557 275.009674,129.009598 
z"/>
<path fill="#F1F1F1" opacity="1.000000" stroke="none" 
	d="
M122.972305,348.050720 
	C122.981361,348.042633 122.852837,348.046326 122.904572,348.069336 
	C122.956306,348.092377 122.963242,348.058777 122.972305,348.050720 
z"/>
<path fill="#6B6C6D" opacity="1.000000" stroke="none" 
	d="
M568.408447,292.979187 
	C567.274353,292.121063 566.294617,291.003662 565.598450,289.731140 
	C565.036316,288.703522 564.595459,287.508423 564.492920,286.352875 
	C564.316040,284.359711 564.443909,282.339478 564.443909,279.477661 
	C564.280396,279.520691 565.257690,279.263489 566.598022,279.006256 
	C567.535767,283.555084 568.110535,288.104004 568.408447,292.979187 
z"/>
<path fill="#6B6C6D" opacity="1.000000" stroke="none" 
	d="
M566.301514,277.559692 
	C565.273926,275.851898 564.156677,273.775543 563.056519,271.316223 
	C564.119568,273.019226 565.165649,275.105194 566.301514,277.559692 
z"/>
<path fill="#272526" opacity="1.000000" stroke="none" 
	d="
M495.314148,276.269470 
	C495.856537,264.251709 502.319092,255.376175 512.076294,248.738770 
	C513.466003,247.793427 516.122192,248.709885 518.859802,248.946243 
	C520.317993,249.717667 521.128235,250.837799 521.895996,250.809402 
	C526.191650,250.650513 530.486755,250.297150 534.757507,249.799438 
	C535.567810,249.705002 536.267700,248.662872 537.018555,248.058014 
	C540.289246,249.768417 544.214783,250.827835 546.695618,253.323410 
	C552.019348,258.678741 556.597717,264.774963 561.732117,270.786072 
	C561.116394,271.318451 560.212402,271.983215 559.388733,271.895355 
	C540.595459,269.890350 521.914246,270.764618 503.329803,274.013123 
	C500.736053,274.466461 498.223145,275.382141 495.314148,276.269470 
z"/>
<path fill="#616163" opacity="1.000000" stroke="none" 
	d="
M536.845825,247.722961 
	C536.267700,248.662872 535.567810,249.705002 534.757507,249.799438 
	C530.486755,250.297150 526.191650,250.650513 521.895996,250.809402 
	C521.128235,250.837799 520.317993,249.717667 519.241333,248.883011 
	C519.528442,247.459015 520.108215,245.256088 520.673950,245.259689 
	C526.074402,245.293900 531.781860,243.537552 536.845825,247.722961 
z"/>
</svg>