<svg version="1.1" id="Layer_1" xmlns="http://www.w3.org/2000/svg" xmlns:xlink="http://www.w3.org/1999/xlink" x="0px" y="0px"
	 width="100%" viewBox="0 0 1024 736" enable-background="new 0 0 1024 736" xml:space="preserve">
<path fill="#000000" opacity="1.000000" stroke="none" 
	d="
M126.662827,574.936218 
	C129.405411,563.225525 136.347244,554.563538 144.088898,546.372498 
	C153.048615,536.892639 161.401962,526.939880 166.834122,514.928101 
	C168.730942,510.733826 170.155396,506.325928 171.404510,501.794464 
	C163.181183,517.389893 150.831833,529.476746 138.467545,541.523438 
	C125.162346,554.486877 119.755875,571.060730 116.294945,588.650696 
	C114.398941,598.287048 112.202370,607.886353 107.465805,616.643494 
	C98.768517,632.723450 83.863716,639.471497 67.156410,644.130615 
	C66.980728,642.063477 68.082710,641.792358 68.935638,641.373474 
	C88.461960,631.782898 97.256630,615.393982 99.804222,594.413269 
	C101.563858,579.921875 103.594269,565.357483 108.639893,551.509399 
	C113.081161,539.320007 122.054611,530.159607 130.048355,520.372864 
	C139.897873,508.314148 149.044418,495.907562 152.989548,480.419006 
	C155.204712,471.722290 154.860641,462.910309 154.941940,454.104523 
	C155.077133,439.458435 154.183365,424.831604 155.530563,410.162994 
	C158.248871,380.565735 173.730545,363.236511 202.796875,357.657532 
	C217.788223,354.780090 232.889526,354.477814 248.053162,354.587585 
	C263.717651,354.700958 279.384705,354.626617 295.046478,354.885162 
	C305.188690,355.052582 314.165619,351.520355 322.141876,345.946777 
	C349.701569,326.688690 380.334106,316.255127 413.546478,312.496521 
	C422.945099,311.432922 432.232635,309.380035 441.564819,307.744720 
	C443.310364,307.438812 445.740906,307.413177 444.921692,304.639130 
	C443.280304,299.081299 446.008331,296.990753 450.951996,296.321716 
	C451.577789,296.237030 452.155640,295.797852 452.762238,295.519897 
	C453.493164,290.469330 452.920074,286.231537 447.744843,283.549835 
	C445.585205,282.430725 444.225281,280.012573 443.318268,277.636292 
	C442.565979,275.665314 441.177582,273.567596 442.761841,271.508545 
	C444.293030,269.518524 446.610565,270.030792 448.783813,270.196564 
	C457.078644,270.829102 465.349152,272.059631 473.694366,271.632324 
	C481.851105,271.214600 489.962341,270.374725 497.755219,267.689209 
	C500.406219,266.775635 503.043518,265.811401 505.644104,263.360291 
	C499.776215,258.582001 493.472229,255.412613 486.987274,252.598312 
	C481.797272,250.345993 476.328796,248.684753 471.278717,246.169388 
	C450.569855,235.854630 445.393951,214.926163 458.669769,195.979050 
	C459.506592,194.784760 461.109497,193.632889 460.250885,192.056763 
	C457.863098,187.673477 461.125763,186.062408 463.864990,184.223419 
	C474.061493,177.377960 485.743469,174.468842 497.535767,172.289185 
	C511.505127,169.707169 524.129822,163.777176 536.765564,157.793472 
	C550.949524,151.076630 565.101990,144.357193 581.207153,143.813080 
	C583.660950,143.730179 584.376892,142.447617 584.093384,140.227600 
	C583.988220,139.403793 584.268188,138.432465 583.926880,137.751907 
	C578.954041,127.837006 584.731018,119.045799 587.374512,110.254509 
	C590.826111,98.775551 600.196411,93.767471 611.722656,92.737915 
	C614.413757,92.497536 616.926941,92.302994 619.311401,90.801392 
	C621.972046,89.125923 625.093567,89.092819 627.076965,91.547134 
	C629.315308,94.317039 632.301514,95.505547 635.189209,97.108017 
	C643.285767,101.601112 647.934387,108.644783 649.726990,117.609009 
	C651.025269,124.101410 653.541870,129.583191 660.349670,131.959427 
	C660.970825,132.176224 661.525330,132.583771 662.414307,133.068115 
	C656.806335,138.274033 650.307190,135.157837 644.844727,136.814545 
	C644.144592,139.919418 646.476318,141.580597 647.562744,143.696365 
	C648.730408,145.970276 649.515198,148.003738 646.826355,149.740128 
	C645.765137,150.425415 645.280701,151.430710 645.347412,152.711914 
	C645.631409,158.166656 641.386292,161.922714 640.010742,166.792374 
	C639.315186,169.254883 636.912048,169.497681 634.568481,168.925781 
	C631.984436,168.295212 629.419373,167.475555 626.794800,167.145706 
	C621.341614,166.460327 619.328430,168.923935 616.043274,173.369873 
	C613.411621,176.931381 612.531616,180.061584 612.182007,184.257874 
	C611.410889,193.512650 616.900757,199.055527 622.721497,204.664200 
	C625.245972,207.096756 627.232544,205.568390 629.250977,203.949203 
	C637.828247,197.068298 646.402527,190.183563 654.976685,183.298706 
	C676.136047,166.308212 699.620300,154.415970 726.702637,150.199295 
	C759.304688,145.123230 790.425598,148.962936 819.422791,165.438599 
	C822.617371,167.253693 824.717834,167.174866 827.227356,164.664612 
	C828.735901,163.155518 830.583862,161.863281 832.494202,160.899933 
	C839.831299,157.200027 845.103882,151.744156 847.768066,143.881271 
	C847.960571,143.313293 848.496582,142.861755 849.269165,141.823669 
	C853.099609,148.741959 851.291870,155.855225 851.391663,163.167618 
	C855.893555,160.972015 856.482788,156.384842 859.781738,153.356003 
	C862.351685,160.762054 860.581604,167.351761 858.745789,173.845306 
	C857.329224,178.855759 854.793945,183.417770 851.342529,187.331223 
	C849.652893,189.247162 849.494690,190.851471 850.521301,193.146072 
	C863.328430,221.770905 871.992615,251.905197 882.514282,281.363495 
	C886.301086,291.965607 879.751404,307.141479 869.601624,311.903351 
	C868.701416,312.325714 867.629761,313.037628 866.802979,312.857300 
	C860.365540,311.453339 853.595947,313.424438 847.276855,310.765167 
	C842.258057,308.653076 842.272339,304.709839 843.387695,300.279297 
	C838.877869,297.368835 833.821472,298.139893 829.199341,297.590820 
	C795.890991,293.633820 763.290527,286.521851 731.282471,276.571747 
	C724.792236,274.554169 724.887268,274.815826 722.377563,281.118866 
	C719.711426,287.814880 720.453552,294.472260 721.377441,301.236511 
	C722.884705,312.271210 720.869446,322.748474 716.457886,332.871185 
	C715.951660,334.032654 714.934265,335.128754 715.527710,336.908752 
	C718.445923,338.092712 721.660217,338.702942 724.988464,338.705292 
	C734.153442,338.711761 743.318481,338.670898 752.483459,338.663544 
	C765.083557,338.653381 773.147217,349.343750 769.470825,361.621338 
	C766.942871,370.063690 762.744324,377.893555 760.054626,386.329102 
	C755.703552,399.975372 751.998413,413.792877 748.323792,427.619415 
	C746.393555,434.882019 742.183350,439.687408 735.016846,441.799713 
	C721.893799,445.667633 710.158936,453.146271 696.794373,456.390778 
	C691.178833,457.754028 690.811157,457.522186 690.657043,451.814270 
	C690.493591,445.759399 691.278320,439.851471 693.206909,434.115509 
	C696.357178,424.746277 701.489319,421.366974 711.912109,421.871338 
	C712.342529,423.354279 712.689453,424.956299 713.272278,426.467255 
	C714.283447,429.088440 716.166992,430.137024 718.802795,428.789917 
	C720.974915,427.679688 723.734863,426.707520 721.957458,423.270966 
	C719.408264,418.342346 721.344238,414.766876 725.194153,411.502258 
	C737.983948,400.656921 741.550720,385.846405 743.251892,369.702332 
	C736.001770,368.445221 729.362122,369.774689 722.714233,370.813232 
	C711.240417,372.605713 700.852356,377.743805 689.991882,381.429169 
	C686.688904,382.549957 683.364258,383.713470 679.957031,384.394897 
	C675.003418,385.385590 670.508423,387.161438 666.121338,389.729767 
	C659.178955,393.794067 651.715393,395.034363 644.204285,391.087036 
	C641.314697,389.568420 639.458130,391.229614 637.401733,392.556335 
	C617.421326,405.447235 596.285339,415.933746 573.509888,422.901093 
	C554.627747,428.677460 535.198181,431.191254 515.529785,432.349640 
	C496.546448,433.467621 477.536133,432.462524 458.563721,433.363434 
	C448.910309,433.821838 439.393494,435.437042 430.257050,438.854889 
	C422.283203,441.837860 416.178223,446.944031 411.997345,454.368530 
	C407.747284,461.915924 403.551697,469.495972 399.175842,476.970123 
	C389.557343,493.398987 375.290833,505.037415 359.383301,514.831970 
	C348.868073,521.306335 338.636902,528.072388 329.348724,536.290649 
	C320.286530,544.308838 309.496002,549.720215 298.668030,554.904602 
	C292.014496,558.090271 286.472504,562.252136 282.791321,568.796936 
	C281.332245,571.391113 279.680115,574.115295 277.455627,576.001587 
	C263.121460,588.156860 258.241394,605.211243 253.299713,622.183289 
	C250.930511,630.320251 249.277588,638.665649 247.297913,646.916077 
	C246.272781,651.188477 244.853622,655.407288 241.468689,658.315125 
	C233.136414,665.472839 227.083923,674.413879 221.007858,683.382141 
	C214.402542,693.131409 205.272354,699.990234 195.211426,705.818665 
	C192.546677,707.362305 190.908325,707.296204 190.004822,704.163940 
	C187.164764,694.318115 185.413086,684.406982 187.608658,674.130981 
	C189.032471,667.467224 193.752396,664.171509 199.479752,661.694397 
	C201.663940,660.749756 202.853912,662.035156 204.203796,663.364380 
	C206.979080,666.097107 209.969193,666.675659 212.970840,663.727783 
	C215.819977,660.929688 216.657852,658.261108 213.498444,654.717834 
	C209.539001,650.277344 209.271179,646.591125 213.082169,642.107056 
	C234.721329,616.645874 241.926331,585.610840 247.670120,553.963501 
	C247.877655,552.820007 248.254517,551.701538 248.393494,550.552185 
	C249.706100,539.696167 255.217377,533.485840 266.154083,529.969360 
	C288.253357,522.863831 300.053619,500.614258 296.066620,477.610199 
	C292.858795,459.101685 287.598389,441.015656 285.322235,422.312469 
	C283.343262,406.051117 285.764893,390.815735 293.951355,376.566803 
	C294.765839,375.149170 295.535248,373.705688 296.405060,372.130310 
	C290.686035,372.174500 283.174011,378.730743 277.097260,388.567047 
	C272.490265,396.024261 270.189606,404.290375 268.174438,412.862640 
	C265.556305,406.038666 267.393707,398.867950 266.073242,391.919037 
	C257.426056,415.948883 254.672211,440.859039 254.944046,466.339722 
	C249.027695,450.425476 247.756424,433.966888 248.453949,417.212860 
	C246.485168,425.427795 245.694122,433.785309 245.332184,442.201965 
	C244.609222,459.013458 246.904404,475.797485 245.392410,492.642090 
	C243.202988,517.033875 232.174820,536.262207 212.760803,550.882629 
	C211.926331,551.511047 211.057220,552.641602 208.868805,551.346985 
	C229.954620,526.147644 236.376221,497.302826 229.279953,466.108246 
	C228.842468,477.392761 227.523071,489.307220 226.024414,501.211609 
	C223.503510,521.235596 214.216232,538.014648 200.364395,552.054138 
	C186.339142,566.269531 176.226242,582.506165 170.337173,601.487854 
	C170.094269,602.270813 169.917313,603.117432 168.288528,603.314819 
	C166.968918,598.437622 168.632950,593.643127 169.167709,588.926453 
	C170.660065,575.763489 176.716522,564.605835 184.979996,554.447083 
	C190.445328,547.728271 195.552750,540.737427 200.124908,533.347229 
	C210.351746,516.817200 210.520508,498.676636 208.753998,480.193481 
	C208.521530,484.482758 208.014435,488.738403 207.252914,492.960968 
	C206.456207,497.378632 205.776703,501.818726 204.908615,506.221954 
	C201.606506,522.971375 192.331161,536.497314 181.601044,549.233948 
	C177.093582,554.584351 172.720001,560.049744 168.134613,565.331787 
	C161.022675,573.524292 156.129547,582.811218 153.090240,593.239075 
	C150.116089,603.443359 144.630127,612.052673 135.289124,617.726318 
	C133.964615,618.530823 132.853058,620.056213 130.811966,619.377930 
	C130.849411,618.858521 130.699722,618.238525 130.942657,617.955261 
	C138.739655,608.864624 141.682602,597.829529 143.701843,586.404419 
	C145.730499,574.926208 152.477097,566.086670 159.845505,557.573120 
	C165.519287,551.017639 170.543335,544.021851 173.924240,535.625916 
	C172.071381,535.341492 171.788223,536.729309 171.184753,537.479797 
	C165.949631,543.989807 160.128159,549.957092 154.055420,555.660339 
	C145.042633,564.124878 139.301132,574.352783 136.194107,586.288086 
	C132.395950,600.878235 126.169258,614.189575 114.445869,624.293701 
	C111.967255,626.429932 109.597336,628.747742 106.489120,629.825562 
	C105.662430,628.947754 106.041885,628.332642 106.457436,627.833740 
	C117.158333,614.987732 121.945946,599.717102 124.699928,583.590637 
	C125.174301,580.812866 125.942902,578.085388 126.662827,574.936218 
M736.551697,254.044327 
	C732.914612,258.587677 729.746521,263.398346 727.448853,269.658020 
	C763.573181,280.575012 799.949402,288.119354 837.201294,291.617249 
	C832.923523,287.165649 828.257629,283.440369 824.117188,279.201965 
	C819.936584,274.922638 816.310913,270.104492 812.352661,265.601105 
	C811.747070,264.912018 810.707520,264.484894 809.786987,264.210114 
	C797.206299,260.454346 790.398254,251.367996 786.718323,239.362991 
	C784.332031,231.578079 782.074890,229.963577 773.929443,230.007294 
	C769.835938,230.029266 766.051636,231.140030 762.399170,232.882141 
	C752.274719,237.711349 744.034180,244.856644 736.551697,254.044327 
M575.806824,229.151825 
	C577.622925,229.911850 579.035645,228.889771 580.433472,228.027390 
	C584.135071,225.743698 588.092285,224.078140 592.233459,222.771103 
	C596.524292,221.416824 596.852661,219.678116 593.646912,216.603180 
	C591.936646,214.962784 590.272095,214.368118 587.842102,215.228500 
	C583.603943,216.729095 579.169067,217.322876 574.631470,217.344208 
	C563.187073,217.398010 552.127441,221.602493 540.566040,220.597961 
	C539.951050,220.544525 539.281128,220.906921 538.662720,221.143539 
	C534.992188,222.547943 534.622803,224.250366 537.571045,226.770660 
	C539.588196,228.494980 541.834167,229.950150 543.870789,231.653610 
	C546.476990,233.833450 548.975708,234.471115 551.850586,232.045151 
	C553.924438,230.295105 556.429199,229.827560 558.768250,231.456833 
	C561.135559,233.105804 563.012024,232.608246 565.003540,230.884720 
	C567.963562,228.323090 571.264893,227.160812 575.806824,229.151825 
z"/>
<path fill="#000000" opacity="1.000000" stroke="none" 
	d="
M773.074463,448.885193 
	C780.196289,447.939789 786.721802,445.804718 793.420471,445.606750 
	C794.872986,447.973999 794.325623,450.190918 794.326660,452.291870 
	C794.360840,521.611145 794.355591,590.930420 794.363770,660.249695 
	C794.364563,667.063904 794.387085,667.072693 801.343140,667.092224 
	C808.674988,667.112854 816.009399,667.234863 823.337524,667.073425 
	C826.982117,666.993103 829.851990,667.994080 831.884705,671.098511 
	C832.338684,671.791870 833.013062,672.346497 833.433167,673.055542 
	C838.134155,680.989502 844.428772,685.687195 854.239136,683.638245 
	C855.886963,683.294189 857.621887,683.755798 858.991455,684.797119 
	C873.806824,696.062927 891.905823,697.567200 909.119751,701.682556 
	C915.681763,703.251404 922.286194,704.643127 928.768066,707.322083 
	C686.005798,707.322083 443.243500,707.322083 200.335770,707.322083 
	C201.123672,705.237244 202.860275,705.796936 204.181046,705.754578 
	C226.985077,705.023743 249.795319,704.470215 272.595367,703.636475 
	C301.714996,702.571777 330.826263,701.278931 359.942169,700.110352 
	C370.591949,699.682922 381.243500,699.293640 391.896301,698.949890 
	C416.363770,698.160339 440.835541,697.492798 465.299866,696.617371 
	C486.265137,695.867188 507.218475,694.764343 528.186401,694.120850 
	C533.190186,693.967285 537.301392,692.126160 541.060425,689.388733 
	C547.409790,684.764832 554.243530,682.824097 562.110168,683.497314 
	C567.734619,683.978577 573.443909,683.381958 579.094910,683.669250 
	C582.861267,683.860779 585.716003,682.707031 587.458496,679.486145 
	C592.949219,669.336853 601.237000,666.563477 612.595642,667.291016 
	C627.682190,668.257446 642.895874,667.095398 658.052979,667.184265 
	C662.798340,667.212097 663.915222,665.369080 663.905945,660.970398 
	C663.793762,607.814758 663.915161,554.658508 663.719360,501.503357 
	C663.699402,496.074921 664.945679,493.192017 670.679016,492.514618 
	C675.278381,491.971191 679.825806,490.734009 684.300110,489.465576 
	C687.985657,488.420685 689.171997,489.749939 689.144836,493.270081 
	C689.074097,502.434326 689.093811,511.599518 689.122559,520.764221 
	C689.143921,527.572937 689.175415,527.588867 696.212097,527.568176 
	C717.699280,527.505066 739.187073,527.328369 760.673279,527.442139 
	C764.927856,527.464600 764.668213,525.055603 764.667542,522.292114 
	C764.662109,501.129730 764.669006,479.967377 764.672668,458.804993 
	C764.674072,450.744690 764.674866,450.744690 773.074463,448.885193 
M761.949707,636.282349 
	C739.308044,636.253845 716.665955,636.282410 694.025024,636.139038 
	C690.364258,636.115845 688.946411,637.360962 689.041870,641.044678 
	C689.222900,648.032471 689.197937,655.029724 689.073914,662.019714 
	C689.011475,665.539124 690.220520,667.154053 693.973206,667.137146 
	C715.948975,667.037903 737.925598,667.050049 759.901611,667.120483 
	C763.201599,667.131104 764.795410,666.118652 764.712280,662.540649 
	C764.542175,655.219116 764.675537,647.890930 764.646912,640.565613 
	C764.640625,638.944763 764.946167,637.117188 761.949707,636.282349 
M693.831543,573.676819 
	C715.638428,573.676941 737.445862,573.596863 759.251709,573.748352 
	C763.348389,573.776794 764.893982,572.481323 764.735413,568.316406 
	C764.476013,561.501160 764.613464,554.668457 764.684387,547.844177 
	C764.712646,545.126770 764.087524,543.370056 760.856506,543.375732 
	C738.217468,543.415466 715.578247,543.400635 692.939209,543.343140 
	C690.148743,543.336060 689.061890,544.549683 689.088989,547.252991 
	C689.164062,554.743042 689.181274,562.234192 689.142761,569.724487 
	C689.129150,572.368347 690.076172,573.875916 693.831543,573.676819 
M761.986267,590.095642 
	C739.321716,590.037659 716.656982,590.004700 693.992676,589.893433 
	C690.766174,589.877625 688.983032,590.850891 689.056641,594.441956 
	C689.200256,601.438904 689.210876,608.441650 689.105408,615.439392 
	C689.056396,618.693481 690.439270,619.806519 693.601624,619.794312 
	C715.767456,619.708801 737.933899,619.686768 760.099609,619.764160 
	C763.603027,619.776367 764.792969,618.377808 764.714844,614.990540 
	C764.557373,608.161011 764.679993,601.325256 764.652588,594.492249 
	C764.645996,592.858704 764.899353,591.055359 761.986267,590.095642 
z"/>
</svg>